<mxfile host="app.diagrams.net" modified="2023-05-25T07:52:38.765Z" agent="Mozilla/5.0 (Windows NT 10.0; Win64; x64) AppleWebKit/537.36 (KHTML, like Gecko) Chrome/113.0.0.0 Safari/537.36" etag="meDBuB0wr_OEQ-HkC-WY" version="21.3.3" type="github">
  <diagram name="Page-1" id="usHrcnoAU3tcRTf7viQb">
    <mxGraphModel dx="1134" dy="626" grid="1" gridSize="10" guides="1" tooltips="1" connect="1" arrows="1" fold="1" page="1" pageScale="1" pageWidth="850" pageHeight="1100" math="0" shadow="0">
      <root>
        <mxCell id="0" />
        <mxCell id="1" parent="0" />
        <mxCell id="ec4J29s_vWeNu1NEpmu9-1" value="Student" style="rounded=0;whiteSpace=wrap;html=1;fillColor=#d5e8d4;strokeColor=#82b366;" vertex="1" parent="1">
          <mxGeometry x="190" y="180" width="120" height="60" as="geometry" />
        </mxCell>
        <mxCell id="ec4J29s_vWeNu1NEpmu9-2" style="edgeStyle=orthogonalEdgeStyle;rounded=0;orthogonalLoop=1;jettySize=auto;html=1;exitX=1;exitY=0.5;exitDx=0;exitDy=0;entryX=0;entryY=0.25;entryDx=0;entryDy=0;" edge="1" parent="1" source="ec4J29s_vWeNu1NEpmu9-3" target="ec4J29s_vWeNu1NEpmu9-1">
          <mxGeometry relative="1" as="geometry" />
        </mxCell>
        <mxCell id="ec4J29s_vWeNu1NEpmu9-3" value="SID" style="ellipse;whiteSpace=wrap;html=1;fillColor=#dae8fc;strokeColor=#6c8ebf;" vertex="1" parent="1">
          <mxGeometry x="10" y="160" width="80" height="50" as="geometry" />
        </mxCell>
        <mxCell id="ec4J29s_vWeNu1NEpmu9-4" style="edgeStyle=orthogonalEdgeStyle;rounded=0;orthogonalLoop=1;jettySize=auto;html=1;exitX=1;exitY=0.5;exitDx=0;exitDy=0;entryX=0.373;entryY=1.046;entryDx=0;entryDy=0;entryPerimeter=0;" edge="1" parent="1" source="ec4J29s_vWeNu1NEpmu9-5" target="ec4J29s_vWeNu1NEpmu9-1">
          <mxGeometry relative="1" as="geometry" />
        </mxCell>
        <mxCell id="ec4J29s_vWeNu1NEpmu9-5" value="Phone" style="ellipse;whiteSpace=wrap;html=1;fillColor=#dae8fc;strokeColor=#6c8ebf;" vertex="1" parent="1">
          <mxGeometry x="100" y="270" width="80" height="50" as="geometry" />
        </mxCell>
        <mxCell id="ec4J29s_vWeNu1NEpmu9-6" style="edgeStyle=orthogonalEdgeStyle;rounded=0;orthogonalLoop=1;jettySize=auto;html=1;exitX=1;exitY=0.5;exitDx=0;exitDy=0;entryX=0.355;entryY=0.009;entryDx=0;entryDy=0;entryPerimeter=0;" edge="1" parent="1" source="ec4J29s_vWeNu1NEpmu9-7" target="ec4J29s_vWeNu1NEpmu9-1">
          <mxGeometry relative="1" as="geometry" />
        </mxCell>
        <mxCell id="ec4J29s_vWeNu1NEpmu9-7" value="Semester" style="ellipse;whiteSpace=wrap;html=1;fillColor=#dae8fc;strokeColor=#6c8ebf;" vertex="1" parent="1">
          <mxGeometry x="100" y="120" width="80" height="50" as="geometry" />
        </mxCell>
        <mxCell id="ec4J29s_vWeNu1NEpmu9-8" style="edgeStyle=orthogonalEdgeStyle;rounded=0;orthogonalLoop=1;jettySize=auto;html=1;exitX=1;exitY=0.5;exitDx=0;exitDy=0;entryX=0.855;entryY=0.028;entryDx=0;entryDy=0;entryPerimeter=0;" edge="1" parent="1" source="ec4J29s_vWeNu1NEpmu9-9" target="ec4J29s_vWeNu1NEpmu9-1">
          <mxGeometry relative="1" as="geometry" />
        </mxCell>
        <mxCell id="ec4J29s_vWeNu1NEpmu9-9" value="GPA" style="ellipse;whiteSpace=wrap;html=1;fillColor=#dae8fc;strokeColor=#6c8ebf;" vertex="1" parent="1">
          <mxGeometry x="190" y="90" width="80" height="50" as="geometry" />
        </mxCell>
        <mxCell id="ec4J29s_vWeNu1NEpmu9-10" style="edgeStyle=orthogonalEdgeStyle;rounded=0;orthogonalLoop=1;jettySize=auto;html=1;exitX=1;exitY=0.5;exitDx=0;exitDy=0;entryX=0;entryY=0.75;entryDx=0;entryDy=0;" edge="1" parent="1" source="ec4J29s_vWeNu1NEpmu9-11" target="ec4J29s_vWeNu1NEpmu9-1">
          <mxGeometry relative="1" as="geometry" />
        </mxCell>
        <mxCell id="ec4J29s_vWeNu1NEpmu9-11" value="Student_name" style="ellipse;whiteSpace=wrap;html=1;fillColor=#dae8fc;strokeColor=#6c8ebf;" vertex="1" parent="1">
          <mxGeometry x="10" y="230" width="90" height="50" as="geometry" />
        </mxCell>
        <mxCell id="ec4J29s_vWeNu1NEpmu9-12" style="edgeStyle=orthogonalEdgeStyle;rounded=0;orthogonalLoop=1;jettySize=auto;html=1;exitX=1;exitY=0.5;exitDx=0;exitDy=0;entryX=0.882;entryY=1.046;entryDx=0;entryDy=0;entryPerimeter=0;" edge="1" parent="1" source="ec4J29s_vWeNu1NEpmu9-13" target="ec4J29s_vWeNu1NEpmu9-1">
          <mxGeometry relative="1" as="geometry" />
        </mxCell>
        <mxCell id="ec4J29s_vWeNu1NEpmu9-13" value="Rollno" style="ellipse;whiteSpace=wrap;html=1;fillColor=#dae8fc;strokeColor=#6c8ebf;" vertex="1" parent="1">
          <mxGeometry x="190" y="300" width="80" height="50" as="geometry" />
        </mxCell>
        <mxCell id="ec4J29s_vWeNu1NEpmu9-14" style="edgeStyle=orthogonalEdgeStyle;rounded=0;orthogonalLoop=1;jettySize=auto;html=1;exitX=0;exitY=0.5;exitDx=0;exitDy=0;entryX=1;entryY=0.5;entryDx=0;entryDy=0;endArrow=ERoneToMany;endFill=0;" edge="1" parent="1" source="ec4J29s_vWeNu1NEpmu9-17" target="ec4J29s_vWeNu1NEpmu9-1">
          <mxGeometry relative="1" as="geometry" />
        </mxCell>
        <mxCell id="ec4J29s_vWeNu1NEpmu9-15" style="edgeStyle=orthogonalEdgeStyle;rounded=0;orthogonalLoop=1;jettySize=auto;html=1;exitX=1;exitY=0.5;exitDx=0;exitDy=0;entryX=0;entryY=0.5;entryDx=0;entryDy=0;endArrow=ERone;endFill=0;" edge="1" parent="1" source="ec4J29s_vWeNu1NEpmu9-17" target="ec4J29s_vWeNu1NEpmu9-46">
          <mxGeometry relative="1" as="geometry" />
        </mxCell>
        <mxCell id="ec4J29s_vWeNu1NEpmu9-16" style="edgeStyle=orthogonalEdgeStyle;rounded=0;orthogonalLoop=1;jettySize=auto;html=1;exitX=0.5;exitY=1;exitDx=0;exitDy=0;entryX=0.5;entryY=0;entryDx=0;entryDy=0;endArrow=ERoneToMany;endFill=0;" edge="1" parent="1" source="ec4J29s_vWeNu1NEpmu9-17" target="ec4J29s_vWeNu1NEpmu9-31">
          <mxGeometry relative="1" as="geometry" />
        </mxCell>
        <mxCell id="ec4J29s_vWeNu1NEpmu9-17" value="Enrolled" style="rhombus;whiteSpace=wrap;html=1;fillColor=#f8cecc;strokeColor=#b85450;" vertex="1" parent="1">
          <mxGeometry x="410" y="170" width="80" height="80" as="geometry" />
        </mxCell>
        <mxCell id="ec4J29s_vWeNu1NEpmu9-18" value="Instructor" style="rounded=0;whiteSpace=wrap;html=1;fillColor=#d5e8d4;strokeColor=#82b366;" vertex="1" parent="1">
          <mxGeometry x="580" y="665" width="120" height="60" as="geometry" />
        </mxCell>
        <mxCell id="ec4J29s_vWeNu1NEpmu9-19" style="edgeStyle=orthogonalEdgeStyle;rounded=0;orthogonalLoop=1;jettySize=auto;html=1;exitX=0.5;exitY=1;exitDx=0;exitDy=0;entryX=0.5;entryY=0;entryDx=0;entryDy=0;" edge="1" parent="1" source="ec4J29s_vWeNu1NEpmu9-20" target="ec4J29s_vWeNu1NEpmu9-18">
          <mxGeometry relative="1" as="geometry" />
        </mxCell>
        <mxCell id="ec4J29s_vWeNu1NEpmu9-20" value="Instructor_fname" style="ellipse;whiteSpace=wrap;html=1;fillColor=#dae8fc;strokeColor=#6c8ebf;" vertex="1" parent="1">
          <mxGeometry x="550" y="590" width="110" height="50" as="geometry" />
        </mxCell>
        <mxCell id="ec4J29s_vWeNu1NEpmu9-21" style="edgeStyle=orthogonalEdgeStyle;rounded=0;orthogonalLoop=1;jettySize=auto;html=1;exitX=0;exitY=0.5;exitDx=0;exitDy=0;entryX=1;entryY=0.75;entryDx=0;entryDy=0;" edge="1" parent="1" source="ec4J29s_vWeNu1NEpmu9-22" target="ec4J29s_vWeNu1NEpmu9-18">
          <mxGeometry relative="1" as="geometry" />
        </mxCell>
        <mxCell id="ec4J29s_vWeNu1NEpmu9-22" value="Instructor ID" style="ellipse;whiteSpace=wrap;html=1;fillColor=#dae8fc;strokeColor=#6c8ebf;" vertex="1" parent="1">
          <mxGeometry x="790" y="735" width="80" height="50" as="geometry" />
        </mxCell>
        <mxCell id="ec4J29s_vWeNu1NEpmu9-23" style="edgeStyle=orthogonalEdgeStyle;rounded=0;orthogonalLoop=1;jettySize=auto;html=1;exitX=0;exitY=0.5;exitDx=0;exitDy=0;entryX=1;entryY=0.25;entryDx=0;entryDy=0;" edge="1" parent="1" source="ec4J29s_vWeNu1NEpmu9-24" target="ec4J29s_vWeNu1NEpmu9-18">
          <mxGeometry relative="1" as="geometry" />
        </mxCell>
        <mxCell id="ec4J29s_vWeNu1NEpmu9-24" value="Educattion&lt;br&gt;Level" style="ellipse;whiteSpace=wrap;html=1;fillColor=#dae8fc;strokeColor=#6c8ebf;" vertex="1" parent="1">
          <mxGeometry x="830" y="625" width="80" height="50" as="geometry" />
        </mxCell>
        <mxCell id="ec4J29s_vWeNu1NEpmu9-91" style="edgeStyle=orthogonalEdgeStyle;rounded=0;orthogonalLoop=1;jettySize=auto;html=1;exitX=0;exitY=1;exitDx=0;exitDy=0;entryX=0.75;entryY=0;entryDx=0;entryDy=0;" edge="1" parent="1" source="ec4J29s_vWeNu1NEpmu9-26" target="ec4J29s_vWeNu1NEpmu9-18">
          <mxGeometry relative="1" as="geometry" />
        </mxCell>
        <mxCell id="ec4J29s_vWeNu1NEpmu9-26" value="Instructor_lname" style="ellipse;whiteSpace=wrap;html=1;fillColor=#dae8fc;strokeColor=#6c8ebf;" vertex="1" parent="1">
          <mxGeometry x="670" y="590" width="110" height="60" as="geometry" />
        </mxCell>
        <mxCell id="ec4J29s_vWeNu1NEpmu9-90" style="edgeStyle=orthogonalEdgeStyle;rounded=0;orthogonalLoop=1;jettySize=auto;html=1;exitX=0;exitY=0;exitDx=0;exitDy=0;entryX=0.75;entryY=1;entryDx=0;entryDy=0;" edge="1" parent="1" source="ec4J29s_vWeNu1NEpmu9-28" target="ec4J29s_vWeNu1NEpmu9-18">
          <mxGeometry relative="1" as="geometry" />
        </mxCell>
        <mxCell id="ec4J29s_vWeNu1NEpmu9-28" value="Subject" style="ellipse;whiteSpace=wrap;html=1;fillColor=#dae8fc;strokeColor=#6c8ebf;" vertex="1" parent="1">
          <mxGeometry x="670" y="760" width="80" height="50" as="geometry" />
        </mxCell>
        <mxCell id="ec4J29s_vWeNu1NEpmu9-29" style="edgeStyle=orthogonalEdgeStyle;rounded=0;orthogonalLoop=1;jettySize=auto;html=1;exitX=0.5;exitY=0;exitDx=0;exitDy=0;entryX=0.5;entryY=1;entryDx=0;entryDy=0;" edge="1" parent="1" source="ec4J29s_vWeNu1NEpmu9-30" target="ec4J29s_vWeNu1NEpmu9-18">
          <mxGeometry relative="1" as="geometry" />
        </mxCell>
        <mxCell id="ec4J29s_vWeNu1NEpmu9-30" value="Shift" style="ellipse;whiteSpace=wrap;html=1;fillColor=#dae8fc;strokeColor=#6c8ebf;" vertex="1" parent="1">
          <mxGeometry x="565" y="760" width="80" height="50" as="geometry" />
        </mxCell>
        <mxCell id="ec4J29s_vWeNu1NEpmu9-31" value="Course" style="rounded=0;whiteSpace=wrap;html=1;fillColor=#d5e8d4;strokeColor=#82b366;" vertex="1" parent="1">
          <mxGeometry x="390" y="320" width="120" height="60" as="geometry" />
        </mxCell>
        <mxCell id="ec4J29s_vWeNu1NEpmu9-32" style="edgeStyle=orthogonalEdgeStyle;rounded=0;orthogonalLoop=1;jettySize=auto;html=1;exitX=0.5;exitY=0;exitDx=0;exitDy=0;entryX=0.25;entryY=1;entryDx=0;entryDy=0;" edge="1" parent="1" source="ec4J29s_vWeNu1NEpmu9-33" target="ec4J29s_vWeNu1NEpmu9-31">
          <mxGeometry relative="1" as="geometry" />
        </mxCell>
        <mxCell id="ec4J29s_vWeNu1NEpmu9-33" value="CID" style="ellipse;whiteSpace=wrap;html=1;fillColor=#dae8fc;strokeColor=#6c8ebf;" vertex="1" parent="1">
          <mxGeometry x="360" y="550" width="80" height="50" as="geometry" />
        </mxCell>
        <mxCell id="ec4J29s_vWeNu1NEpmu9-34" style="edgeStyle=orthogonalEdgeStyle;rounded=0;orthogonalLoop=1;jettySize=auto;html=1;exitX=0.5;exitY=0;exitDx=0;exitDy=0;entryX=0;entryY=0.5;entryDx=0;entryDy=0;" edge="1" parent="1" source="ec4J29s_vWeNu1NEpmu9-35" target="ec4J29s_vWeNu1NEpmu9-31">
          <mxGeometry relative="1" as="geometry" />
        </mxCell>
        <mxCell id="ec4J29s_vWeNu1NEpmu9-35" value="Domain" style="ellipse;whiteSpace=wrap;html=1;fillColor=#dae8fc;strokeColor=#6c8ebf;" vertex="1" parent="1">
          <mxGeometry x="280" y="410" width="80" height="50" as="geometry" />
        </mxCell>
        <mxCell id="ec4J29s_vWeNu1NEpmu9-36" style="edgeStyle=orthogonalEdgeStyle;rounded=0;orthogonalLoop=1;jettySize=auto;html=1;exitX=1;exitY=0.5;exitDx=0;exitDy=0;entryX=0;entryY=1;entryDx=0;entryDy=0;" edge="1" parent="1" source="ec4J29s_vWeNu1NEpmu9-37" target="ec4J29s_vWeNu1NEpmu9-31">
          <mxGeometry relative="1" as="geometry" />
        </mxCell>
        <mxCell id="ec4J29s_vWeNu1NEpmu9-37" value="Time" style="ellipse;whiteSpace=wrap;html=1;fillColor=#dae8fc;strokeColor=#6c8ebf;" vertex="1" parent="1">
          <mxGeometry x="280" y="490" width="80" height="50" as="geometry" />
        </mxCell>
        <mxCell id="ec4J29s_vWeNu1NEpmu9-38" style="edgeStyle=orthogonalEdgeStyle;rounded=0;orthogonalLoop=1;jettySize=auto;html=1;exitX=0.5;exitY=0;exitDx=0;exitDy=0;entryX=0.75;entryY=1;entryDx=0;entryDy=0;" edge="1" parent="1" source="ec4J29s_vWeNu1NEpmu9-39" target="ec4J29s_vWeNu1NEpmu9-31">
          <mxGeometry relative="1" as="geometry" />
        </mxCell>
        <mxCell id="ec4J29s_vWeNu1NEpmu9-39" value="Title" style="ellipse;whiteSpace=wrap;html=1;fillColor=#dae8fc;strokeColor=#6c8ebf;" vertex="1" parent="1">
          <mxGeometry x="460" y="550" width="80" height="50" as="geometry" />
        </mxCell>
        <mxCell id="ec4J29s_vWeNu1NEpmu9-40" style="edgeStyle=orthogonalEdgeStyle;rounded=0;orthogonalLoop=1;jettySize=auto;html=1;exitX=0.5;exitY=0;exitDx=0;exitDy=0;entryX=0.993;entryY=0.394;entryDx=0;entryDy=0;entryPerimeter=0;" edge="1" parent="1" source="ec4J29s_vWeNu1NEpmu9-41" target="ec4J29s_vWeNu1NEpmu9-31">
          <mxGeometry relative="1" as="geometry" />
        </mxCell>
        <mxCell id="ec4J29s_vWeNu1NEpmu9-41" value="Credit" style="ellipse;whiteSpace=wrap;html=1;fillColor=#dae8fc;strokeColor=#6c8ebf;" vertex="1" parent="1">
          <mxGeometry x="530" y="410" width="80" height="50" as="geometry" />
        </mxCell>
        <mxCell id="ec4J29s_vWeNu1NEpmu9-42" style="edgeStyle=orthogonalEdgeStyle;rounded=0;orthogonalLoop=1;jettySize=auto;html=1;exitX=0.75;exitY=0;exitDx=0;exitDy=0;entryX=0;entryY=0.5;entryDx=0;entryDy=0;" edge="1" parent="1" source="ec4J29s_vWeNu1NEpmu9-46" target="ec4J29s_vWeNu1NEpmu9-49">
          <mxGeometry relative="1" as="geometry" />
        </mxCell>
        <mxCell id="ec4J29s_vWeNu1NEpmu9-43" style="edgeStyle=orthogonalEdgeStyle;rounded=0;orthogonalLoop=1;jettySize=auto;html=1;exitX=1;exitY=0.25;exitDx=0;exitDy=0;entryX=0;entryY=0.5;entryDx=0;entryDy=0;" edge="1" parent="1" source="ec4J29s_vWeNu1NEpmu9-46" target="ec4J29s_vWeNu1NEpmu9-48">
          <mxGeometry relative="1" as="geometry" />
        </mxCell>
        <mxCell id="ec4J29s_vWeNu1NEpmu9-44" style="edgeStyle=orthogonalEdgeStyle;rounded=0;orthogonalLoop=1;jettySize=auto;html=1;exitX=1;exitY=0.75;exitDx=0;exitDy=0;entryX=0;entryY=0.5;entryDx=0;entryDy=0;" edge="1" parent="1" source="ec4J29s_vWeNu1NEpmu9-46" target="ec4J29s_vWeNu1NEpmu9-47">
          <mxGeometry relative="1" as="geometry" />
        </mxCell>
        <mxCell id="ec4J29s_vWeNu1NEpmu9-45" style="edgeStyle=orthogonalEdgeStyle;rounded=0;orthogonalLoop=1;jettySize=auto;html=1;exitX=0.75;exitY=1;exitDx=0;exitDy=0;entryX=0;entryY=0.5;entryDx=0;entryDy=0;" edge="1" parent="1" source="ec4J29s_vWeNu1NEpmu9-46" target="ec4J29s_vWeNu1NEpmu9-50">
          <mxGeometry relative="1" as="geometry" />
        </mxCell>
        <mxCell id="ec4J29s_vWeNu1NEpmu9-46" value="Enrollment" style="rounded=0;whiteSpace=wrap;html=1;fillColor=#d5e8d4;strokeColor=#82b366;" vertex="1" parent="1">
          <mxGeometry x="580" y="183" width="120" height="60" as="geometry" />
        </mxCell>
        <mxCell id="ec4J29s_vWeNu1NEpmu9-47" value="AID" style="ellipse;whiteSpace=wrap;html=1;fillColor=#dae8fc;strokeColor=#6c8ebf;" vertex="1" parent="1">
          <mxGeometry x="850" y="229" width="110" height="50" as="geometry" />
        </mxCell>
        <mxCell id="ec4J29s_vWeNu1NEpmu9-48" value="Instructor_name" style="ellipse;whiteSpace=wrap;html=1;fillColor=#dae8fc;strokeColor=#6c8ebf;" vertex="1" parent="1">
          <mxGeometry x="850" y="143" width="110" height="50" as="geometry" />
        </mxCell>
        <mxCell id="ec4J29s_vWeNu1NEpmu9-49" value="Student_name" style="ellipse;whiteSpace=wrap;html=1;fillColor=#dae8fc;strokeColor=#6c8ebf;" vertex="1" parent="1">
          <mxGeometry x="730" y="103" width="110" height="50" as="geometry" />
        </mxCell>
        <mxCell id="ec4J29s_vWeNu1NEpmu9-50" value="Course_name" style="ellipse;whiteSpace=wrap;html=1;fillColor=#dae8fc;strokeColor=#6c8ebf;" vertex="1" parent="1">
          <mxGeometry x="730" y="267" width="110" height="50" as="geometry" />
        </mxCell>
        <mxCell id="ec4J29s_vWeNu1NEpmu9-51" style="edgeStyle=orthogonalEdgeStyle;rounded=0;orthogonalLoop=1;jettySize=auto;html=1;exitX=0.5;exitY=0;exitDx=0;exitDy=0;entryX=0.5;entryY=1;entryDx=0;entryDy=0;endArrow=ERoneToMany;endFill=0;" edge="1" parent="1" source="ec4J29s_vWeNu1NEpmu9-55" target="ec4J29s_vWeNu1NEpmu9-31">
          <mxGeometry relative="1" as="geometry" />
        </mxCell>
        <mxCell id="ec4J29s_vWeNu1NEpmu9-52" style="edgeStyle=orthogonalEdgeStyle;rounded=0;orthogonalLoop=1;jettySize=auto;html=1;exitX=1;exitY=0.5;exitDx=0;exitDy=0;entryX=0;entryY=0.5;entryDx=0;entryDy=0;endArrow=ERone;endFill=0;" edge="1" parent="1" source="ec4J29s_vWeNu1NEpmu9-55" target="ec4J29s_vWeNu1NEpmu9-18">
          <mxGeometry relative="1" as="geometry" />
        </mxCell>
        <mxCell id="ec4J29s_vWeNu1NEpmu9-54" style="edgeStyle=orthogonalEdgeStyle;rounded=0;orthogonalLoop=1;jettySize=auto;html=1;exitX=0.5;exitY=1;exitDx=0;exitDy=0;entryX=0.5;entryY=0;entryDx=0;entryDy=0;endArrow=classicThin;endFill=1;" edge="1" parent="1" target="ec4J29s_vWeNu1NEpmu9-56">
          <mxGeometry relative="1" as="geometry">
            <mxPoint x="250" y="620" as="sourcePoint" />
          </mxGeometry>
        </mxCell>
        <mxCell id="ec4J29s_vWeNu1NEpmu9-86" style="edgeStyle=orthogonalEdgeStyle;rounded=0;orthogonalLoop=1;jettySize=auto;html=1;exitX=0;exitY=0.5;exitDx=0;exitDy=0;entryX=1;entryY=0.5;entryDx=0;entryDy=0;endArrow=ERone;endFill=0;" edge="1" parent="1" source="ec4J29s_vWeNu1NEpmu9-55" target="ec4J29s_vWeNu1NEpmu9-56">
          <mxGeometry relative="1" as="geometry" />
        </mxCell>
        <mxCell id="ec4J29s_vWeNu1NEpmu9-55" value="Course" style="rhombus;whiteSpace=wrap;html=1;fillColor=#f8cecc;strokeColor=#b85450;" vertex="1" parent="1">
          <mxGeometry x="410" y="665" width="80" height="80" as="geometry" />
        </mxCell>
        <mxCell id="ec4J29s_vWeNu1NEpmu9-56" value="Guest" style="rounded=0;whiteSpace=wrap;html=1;fillColor=#d5e8d4;strokeColor=#82b366;" vertex="1" parent="1">
          <mxGeometry x="190" y="675" width="120" height="60" as="geometry" />
        </mxCell>
        <mxCell id="ec4J29s_vWeNu1NEpmu9-88" style="edgeStyle=orthogonalEdgeStyle;rounded=0;orthogonalLoop=1;jettySize=auto;html=1;exitX=1;exitY=0.5;exitDx=0;exitDy=0;entryX=0;entryY=0.5;entryDx=0;entryDy=0;" edge="1" parent="1" source="ec4J29s_vWeNu1NEpmu9-58" target="ec4J29s_vWeNu1NEpmu9-56">
          <mxGeometry relative="1" as="geometry" />
        </mxCell>
        <mxCell id="ec4J29s_vWeNu1NEpmu9-58" value="Guest ID" style="ellipse;whiteSpace=wrap;html=1;fillColor=#dae8fc;strokeColor=#6c8ebf;" vertex="1" parent="1">
          <mxGeometry x="90" y="680" width="80" height="50" as="geometry" />
        </mxCell>
        <mxCell id="ec4J29s_vWeNu1NEpmu9-60" value="Course" style="ellipse;whiteSpace=wrap;html=1;fillColor=#dae8fc;strokeColor=#6c8ebf;" vertex="1" parent="1">
          <mxGeometry x="210" y="608" width="80" height="50" as="geometry" />
        </mxCell>
        <mxCell id="ec4J29s_vWeNu1NEpmu9-89" style="edgeStyle=orthogonalEdgeStyle;rounded=0;orthogonalLoop=1;jettySize=auto;html=1;exitX=0.5;exitY=0;exitDx=0;exitDy=0;entryX=0.5;entryY=1;entryDx=0;entryDy=0;" edge="1" parent="1" source="ec4J29s_vWeNu1NEpmu9-62" target="ec4J29s_vWeNu1NEpmu9-56">
          <mxGeometry relative="1" as="geometry" />
        </mxCell>
        <mxCell id="ec4J29s_vWeNu1NEpmu9-62" value="Guest&lt;br&gt;Speaker_name" style="ellipse;whiteSpace=wrap;html=1;fillColor=#dae8fc;strokeColor=#6c8ebf;" vertex="1" parent="1">
          <mxGeometry x="200" y="755" width="100" height="50" as="geometry" />
        </mxCell>
        <mxCell id="ec4J29s_vWeNu1NEpmu9-93" style="edgeStyle=orthogonalEdgeStyle;rounded=0;orthogonalLoop=1;jettySize=auto;html=1;exitX=0;exitY=0.5;exitDx=0;exitDy=0;entryX=1;entryY=0.5;entryDx=0;entryDy=0;" edge="1" parent="1" source="ec4J29s_vWeNu1NEpmu9-92" target="ec4J29s_vWeNu1NEpmu9-18">
          <mxGeometry relative="1" as="geometry" />
        </mxCell>
        <mxCell id="ec4J29s_vWeNu1NEpmu9-92" value="Phone" style="ellipse;whiteSpace=wrap;html=1;fillColor=#dae8fc;strokeColor=#6c8ebf;" vertex="1" parent="1">
          <mxGeometry x="790" y="675" width="80" height="50" as="geometry" />
        </mxCell>
      </root>
    </mxGraphModel>
  </diagram>
</mxfile>
